<?xml version="1.0" standalone="no"?>
<!DOCTYPE svg PUBLIC "-//W3C//DTD SVG 20010904//EN"
 "http://www.w3.org/TR/2001/REC-SVG-20010904/DTD/svg10.dtd">
<svg version="1.0" xmlns="http://www.w3.org/2000/svg"
 width="321.000000pt" height="150.000000pt" viewBox="0 0 321.000000 150.000000"
 preserveAspectRatio="xMidYMid meet">

<g transform="translate(0.000000,150.000000) scale(0.100000,-0.100000)"
fill="#000000" stroke="none">
<path d="M0 750 l0 -750 1605 0 1605 0 0 750 0 750 -1605 0 -1605 0 0 -750z
m505 500 c3 -5 1 -10 -4 -10 -6 0 -11 5 -11 10 0 6 2 10 4 10 3 0 8 -4 11 -10z
m-75 -10 c-8 -5 -19 -10 -25 -10 -5 0 -3 5 5 10 8 5 20 10 25 10 6 0 3 -5 -5
-10z m370 0 c0 -5 -4 -10 -10 -10 -5 0 -10 5 -10 10 0 6 5 10 10 10 6 0 10 -4
10 -10z m-113 -6 c-3 -3 -12 -4 -19 -1 -8 3 -5 6 6 6 11 1 17 -2 13 -5z m-150
-10 c-3 -3 -12 -4 -19 -1 -8 3 -5 6 6 6 11 1 17 -2 13 -5z m178 -18 c29 -5 36
-4 25 3 -25 17 -3 12 37 -8 21 -11 47 -21 58 -23 11 -2 26 -9 34 -16 11 -11
17 -10 35 5 20 17 20 17 6 -1 -13 -16 -12 -20 5 -32 11 -8 27 -21 37 -28 9 -8
18 -12 20 -10 3 2 19 -16 37 -41 18 -25 37 -42 43 -39 7 4 8 2 4 -4 -9 -15 23
-71 38 -68 6 2 8 1 4 -1 -5 -3 -8 -14 -8 -24 0 -13 4 -18 12 -13 8 5 9 2 5 -9
-3 -10 -3 -17 2 -17 4 0 6 -55 5 -122 -4 -157 -6 -180 -12 -174 -10 10 -50
-79 -41 -90 6 -7 2 -18 -11 -29 -11 -10 -20 -14 -20 -10 0 5 -11 -2 -25 -15
-14 -13 -23 -30 -21 -37 3 -7 -1 -10 -9 -7 -8 3 -29 -5 -47 -19 -47 -35 -116
-69 -152 -74 -17 -2 -51 -8 -76 -12 -52 -10 -119 -6 -205 14 -33 7 -63 11 -67
9 -5 -3 -8 0 -8 6 0 6 -4 8 -10 5 -5 -3 -10 -1 -10 5 0 7 -7 7 -22 -1 -20 -11
-21 -10 -11 2 10 12 8 17 -8 27 -11 7 -25 10 -31 6 -6 -4 -8 -3 -5 3 4 6 -4
18 -17 26 -12 9 -37 30 -54 47 -18 17 -36 29 -41 25 -5 -3 -13 0 -17 6 -5 8
-3 9 5 4 9 -5 12 0 9 16 -2 16 -9 24 -21 23 -14 -2 -15 1 -6 12 9 11 9 14 0
14 -7 0 -9 5 -6 10 3 6 2 10 -2 10 -5 0 -10 12 -11 27 -1 15 -5 29 -10 32 -9
7 -11 33 -12 131 -1 88 2 112 23 162 8 20 13 39 9 42 -3 3 0 6 6 6 7 0 12 10
12 21 0 19 -2 20 -17 8 -16 -13 -17 -12 -4 4 8 10 10 22 5 30 -5 7 1 1 13 -13
17 -18 23 -21 23 -9 0 28 113 125 191 164 72 37 89 41 192 44 29 0 46 5 42 11
-4 6 2 7 17 1 13 -4 41 -11 63 -15z m-350 -44 c-3 -3 -11 0 -18 7 -9 10 -8 11
6 5 10 -3 15 -9 12 -12z m-85 4 c0 -2 -8 -10 -17 -17 -16 -13 -17 -12 -4 4 13
16 21 21 21 13z m20 -23 c-12 -8 -25 -25 -30 -37 -7 -17 -9 -17 -9 -4 -1 22
39 69 51 62 5 -4 0 -13 -12 -21z m-99 -96 c-10 -9 -11 -8 -5 6 3 10 9 15 12
12 3 -3 0 -11 -7 -18z m909 -42 c0 -12 -19 -12 -23 0 -4 9 -1 12 9 8 7 -3 14
-7 14 -8z m-1009 -88 c-10 -9 -11 -8 -5 6 3 10 9 15 12 12 3 -3 0 -11 -7 -18z
m1857 17 c17 -5 22 -14 22 -40 l0 -33 -49 6 c-46 5 -52 3 -80 -25 -35 -34 -39
-67 -16 -112 22 -42 56 -48 132 -25 18 6 22 2 28 -25 8 -37 0 -46 -57 -55 -52
-9 -112 3 -144 28 -53 42 -71 141 -36 207 31 59 124 94 200 74z m-1823 -44 c3
-6 -1 -7 -9 -4 -18 7 -21 14 -7 14 6 0 13 -4 16 -10z m-10 -50 c3 -5 1 -10 -4
-10 -6 0 -11 5 -11 10 0 6 2 10 4 10 3 0 8 -4 11 -10z m2035 -15 c0 -20 5 -25
25 -25 22 0 25 -4 25 -35 0 -31 -3 -35 -25 -35 -20 0 -25 -5 -25 -25 0 -22 -4
-25 -35 -25 -31 0 -35 3 -35 25 0 20 -5 25 -25 25 -22 0 -25 4 -25 35 0 31 3
35 25 35 20 0 25 5 25 25 0 22 4 25 35 25 31 0 35 -3 35 -25z m220 0 c0 -20 5
-25 25 -25 22 0 25 -4 25 -35 0 -31 -3 -35 -25 -35 -20 0 -25 -5 -25 -25 0
-22 -4 -25 -35 -25 -31 0 -35 3 -35 25 0 20 -5 25 -25 25 -22 0 -25 4 -25 35
0 31 3 35 25 35 20 0 25 5 25 25 0 22 4 25 35 25 31 0 35 -3 35 -25z m-2272
-60 c-3 -3 -9 2 -12 12 -6 14 -5 15 5 6 7 -7 10 -15 7 -18z m-1 -107 c-3 -7
-5 -2 -5 12 0 14 2 19 5 13 2 -7 2 -19 0 -25z m20 0 c-3 -8 -6 -5 -6 6 -1 11
2 17 5 13 3 -3 4 -12 1 -19z m983 -148 c0 -5 -2 -10 -4 -10 -3 0 -8 5 -11 10
-3 6 -1 10 4 10 6 0 11 -4 11 -10z m-927 -27 c-3 -7 -6 -13 -8 -13 -2 0 -5 6
-8 13 -3 8 1 14 8 14 7 0 11 -6 8 -14z m74 -83 c-1 -12 -5 -16 -10 -11 -5 5
-6 14 -3 20 11 16 15 13 13 -9z m675 -50 c-12 -11 -25 -20 -29 -20 -9 1 36 40
45 40 3 0 -4 -9 -16 -20z m-572 -5 c0 -2 -10 -9 -22 -15 -22 -11 -22 -10 -4 4
21 17 26 19 26 11z m526 -24 c-6 -9 -46 -22 -46 -15 0 3 10 9 23 14 29 11 29
11 23 1z m48 -9 c3 -5 -1 -9 -9 -9 -8 0 -12 4 -9 9 3 4 7 8 9 8 2 0 6 -4 9 -8z
m-217 -58 c-3 -3 -12 -4 -19 -1 -8 3 -5 6 6 6 11 1 17 -2 13 -5z"/>
<path d="M865 884 c-38 -24 -104 -62 -145 -83 -78 -41 -142 -77 -176 -98 -18
-13 -18 -14 9 -38 39 -35 104 -35 146 1 l30 25 46 -26 c49 -29 49 -40 3 -81
-93 -85 -243 -77 -322 17 -30 35 -36 35 -117 -16 -35 -22 -39 -29 -28 -40 22
-20 279 -165 305 -171 17 -4 62 16 174 81 83 48 155 96 160 106 14 24 9 361
-5 365 -5 2 -41 -17 -80 -42z m-29 -118 c8 -8 14 -17 14 -21 0 -10 -28 -35
-39 -35 -6 0 -11 5 -11 10 0 6 -7 10 -15 10 -8 0 -15 7 -15 15 0 8 7 15 15 15
8 0 15 5 15 10 0 15 19 12 36 -4z m90 0 c8 -8 14 -17 14 -21 0 -10 -28 -35
-39 -35 -6 0 -11 5 -11 10 0 6 -7 10 -15 10 -8 0 -15 7 -15 15 0 8 7 15 15 15
8 0 15 5 15 10 0 15 19 12 36 -4z"/>
<path d="M1035 479 c-11 -17 1 -21 15 -4 8 9 8 15 2 15 -6 0 -14 -5 -17 -11z"/>
</g>
</svg>
