<?xml version="1.0" standalone="no"?>
<!DOCTYPE svg PUBLIC "-//W3C//DTD SVG 20010904//EN"
 "http://www.w3.org/TR/2001/REC-SVG-20010904/DTD/svg10.dtd">
<svg version="1.0" xmlns="http://www.w3.org/2000/svg"
 width="298.000000pt" height="150.000000pt" viewBox="0 0 298.000000 150.000000"
 preserveAspectRatio="xMidYMid meet">

<g transform="translate(0.000000,150.000000) scale(0.100000,-0.100000)"
fill="#000000" stroke="none">
<path d="M0 750 l0 -750 1490 0 1490 0 0 750 0 750 -1490 0 -1490 0 0 -750z
m730 449 c223 -35 389 -227 390 -449 1 -224 -170 -416 -400 -451 -173 -26
-330 18 -439 122 -185 178 -188 472 -7 653 112 111 271 155 456 125z m1164
-269 c20 -7 26 -16 26 -40 0 -30 -1 -30 -40 -24 -59 10 -88 -2 -107 -40 -20
-43 -11 -99 20 -121 25 -17 64 -19 101 -5 21 8 27 6 36 -10 18 -34 11 -49 -27
-59 -55 -16 -92 -13 -141 9 -93 42 -109 184 -30 258 41 38 111 52 162 32z
m201 -60 c-5 -23 -3 -30 8 -30 9 0 18 13 22 30 6 26 11 30 41 30 32 0 33 -1
28 -30 -5 -23 -3 -30 10 -30 11 0 16 -9 16 -30 0 -23 -4 -30 -20 -30 -13 0
-20 -7 -20 -20 0 -11 5 -20 10 -20 6 0 10 -13 10 -30 0 -19 -5 -30 -14 -30 -8
0 -17 -11 -20 -25 -5 -20 -12 -25 -40 -25 -30 0 -33 2 -28 25 3 18 0 25 -11
25 -8 0 -18 -11 -21 -25 -5 -20 -12 -25 -40 -25 -30 0 -33 2 -28 25 2 15 0 25
-7 25 -6 0 -11 14 -11 30 0 20 5 30 15 30 8 0 15 9 15 20 0 11 -4 20 -10 20
-5 0 -10 14 -10 30 0 19 5 30 14 30 8 0 17 14 21 30 6 26 11 30 42 30 33 0 34
-1 28 -30z"/>
<path d="M560 1026 c-147 -31 -239 -138 -240 -277 -1 -246 314 -371 521 -207
158 124 127 362 -58 457 -32 16 -142 43 -162 40 -3 0 -31 -6 -61 -13z m44
-162 c9 -3 16 -12 16 -19 0 -9 -14 -11 -50 -7 -44 4 -52 2 -80 -26 -71 -71 -8
-172 91 -145 34 9 39 8 39 -7 0 -22 -20 -30 -70 -30 -56 0 -87 15 -110 52 -37
60 -21 124 39 165 33 22 91 30 125 17z m132 -29 c-6 -30 -4 -35 12 -35 15 0
22 9 26 35 4 22 13 35 22 35 12 0 13 -8 8 -35 -5 -31 -4 -35 15 -35 11 0 21
-4 21 -10 0 -5 -11 -10 -24 -10 -13 0 -27 -7 -30 -16 -9 -23 -8 -24 20 -24 33
0 27 -24 -8 -28 -19 -2 -27 -10 -32 -33 -3 -16 -12 -29 -20 -29 -12 0 -14 7
-9 31 5 27 3 31 -13 27 -12 -2 -20 -13 -22 -31 -2 -16 -9 -27 -19 -27 -11 0
-14 8 -11 30 4 24 1 30 -14 30 -10 0 -18 7 -18 15 0 9 9 15 25 15 18 0 25 5
25 20 0 13 -7 20 -20 20 -11 0 -20 5 -20 10 0 6 11 10 25 10 20 0 25 6 31 35
4 22 12 35 21 35 12 0 14 -8 9 -35z"/>
<path d="M720 759 c0 -14 5 -19 17 -17 26 5 29 38 4 38 -15 0 -21 -6 -21 -21z"/>
<path d="M2080 760 c0 -11 7 -20 15 -20 8 0 15 9 15 20 0 11 -7 20 -15 20 -8
0 -15 -9 -15 -20z"/>
</g>
</svg>
