<?xml version="1.0" standalone="no"?>
<!DOCTYPE svg PUBLIC "-//W3C//DTD SVG 20010904//EN"
 "http://www.w3.org/TR/2001/REC-SVG-20010904/DTD/svg10.dtd">
<svg version="1.0" xmlns="http://www.w3.org/2000/svg"
 width="418.000000pt" height="150.000000pt" viewBox="0 0 418.000000 150.000000"
 preserveAspectRatio="xMidYMid meet">

<g transform="translate(0.000000,150.000000) scale(0.100000,-0.100000)"
fill="#000000" stroke="none">
<path d="M546 1066 c-59 -16 -76 -36 -76 -88 l0 -38 80 0 c64 0 80 -3 80 -15
0 -12 -20 -15 -117 -15 -128 0 -153 -7 -187 -53 -16 -22 -20 -43 -20 -100 0
-116 33 -167 109 -167 l35 0 0 60 c0 51 4 65 25 85 22 23 32 25 117 25 100 0
159 12 178 35 16 19 25 160 13 205 -6 22 -20 41 -39 52 -42 24 -137 31 -198
14z m19 -66 c0 -18 -6 -26 -23 -28 -24 -4 -38 18 -28 44 3 9 15 14 28 12 17
-2 23 -10 23 -28z"/>
</g>
</svg>
