<?xml version="1.0" standalone="no"?>
<!DOCTYPE svg PUBLIC "-//W3C//DTD SVG 20010904//EN"
 "http://www.w3.org/TR/2001/REC-SVG-20010904/DTD/svg10.dtd">
<svg version="1.0" xmlns="http://www.w3.org/2000/svg"
 width="418.000000pt" height="150.000000pt" viewBox="0 0 418.000000 150.000000"
 preserveAspectRatio="xMidYMid meet">

<g transform="translate(0.000000,150.000000) scale(0.100000,-0.100000)"
fill="#000000" stroke="none">
<path d="M0 750 l0 -750 2090 0 2090 0 0 750 0 750 -2090 0 -2090 0 0 -750z
m719 450 c105 -14 188 -55 265 -132 143 -145 173 -338 81 -524 -89 -182 -284
-274 -517 -244 -106 13 -192 53 -267 125 -66 63 -104 126 -126 210 -42 162 5
324 126 440 114 109 255 149 438 125z m2361 -250 c0 -77 1 -80 19 -70 11 5 41
10 66 10 38 0 52 -5 75 -28 33 -34 43 -82 38 -192 l-3 -75 -47 -3 -48 -3 0 99
c0 115 -9 131 -63 116 l-32 -10 -3 -102 -3 -102 -49 0 -50 0 0 220 0 220 50 0
50 0 0 -80z m-680 20 l0 -40 -50 0 -50 0 0 40 0 40 50 0 50 0 0 -40z m-650
-30 l0 -40 -55 0 -55 0 0 -155 0 -155 -45 0 -45 0 0 155 0 155 -55 0 -55 0 0
40 0 40 155 0 155 0 0 -40z m830 -20 l0 -50 35 0 c34 0 35 -1 35 -40 0 -39 -1
-40 -35 -40 l-35 0 0 -49 c0 -65 7 -81 36 -81 21 0 24 -4 24 -40 l0 -40 -49 0
c-34 0 -56 6 -75 21 -24 19 -26 26 -26 105 0 77 -2 84 -20 84 -17 0 -20 7 -20
40 0 33 3 40 20 40 17 0 20 7 20 50 l0 50 45 0 45 0 0 -50z m-697 -42 c2 -7
10 -46 17 -86 15 -82 20 -79 45 26 l17 72 58 0 58 0 17 -72 c25 -105 30 -108
45 -26 18 101 16 98 70 98 l48 0 -37 -147 -37 -148 -59 0 -58 0 -22 75 c-25
81 -24 81 -55 -18 l-18 -57 -58 0 -58 0 -33 130 c-43 170 -43 165 11 165 26 0
46 -5 49 -12z m1015 6 c18 -5 22 -13 22 -46 l0 -40 -46 7 c-66 10 -94 -11 -94
-70 0 -37 4 -47 25 -61 22 -14 32 -15 66 -5 23 7 42 11 43 9 2 -2 8 -18 14
-36 10 -30 9 -33 -18 -47 -41 -21 -128 -19 -166 4 -89 54 -85 224 7 273 33 18
103 23 147 12z m-498 -149 l0 -145 -50 0 -50 0 0 145 0 145 50 0 50 0 0 -145z"/>
<path d="M383 993 c-15 -31 -18 -74 -21 -245 l-3 -207 68 -3 68 -3 3 -37 c3
-35 5 -38 36 -38 24 0 41 10 71 40 36 37 43 40 95 40 l56 0 72 73 72 72 0 173
0 172 -250 0 -250 0 -17 -37z m467 -151 l0 -138 -43 -42 c-42 -41 -44 -42
-112 -42 -68 0 -71 -1 -98 -35 -35 -44 -47 -44 -47 0 l0 35 -55 0 -55 0 0 180
0 180 205 0 205 0 0 -138z"/>
<path d="M582 808 c3 -67 5 -73 26 -76 21 -3 22 0 22 72 0 75 0 76 -25 76 -26
0 -26 -1 -23 -72z"/>
<path d="M720 805 c0 -68 2 -75 20 -75 18 0 20 7 20 75 0 68 -2 75 -20 75 -18
0 -20 -7 -20 -75z"/>
</g>
</svg>
